# Blender v2.92.0 OBJ File: 'tableTopRect.blend'
# www.blender.org
mtllib tableTopRect.mtl
o Cube
v 6.000000 -0.250000 4.000000
v 6.000000 0.250000 4.000000
v 6.000000 -0.250000 -4.000000
v 6.000000 0.250000 -4.000000
v -6.000000 -0.250000 4.000000
v -6.000000 0.250000 4.000000
v -6.000000 -0.250000 -4.000000
v -6.000000 0.250000 -4.000000
v -1.418182 0.250000 -4.000000
v -1.418182 -0.250000 -4.000000
v -1.418182 0.250000 -1.661616
v -1.418182 -0.250000 -1.661616
v 1.418182 0.250000 -1.661616
v 1.418182 -0.250000 -1.661616
v 1.418182 0.250000 -4.000000
v 1.418182 -0.250000 -4.000000
vt 0.375000 0.000000
vt 0.625000 0.000000
vt 0.625000 0.250000
vt 0.375000 0.250000
vt 0.375000 0.500000
vt 0.625000 0.500000
vt 0.625000 0.750000
vt 0.375000 0.750000
vt 0.531250 0.067314
vt 0.468750 0.067314
vt 0.468750 0.250000
vt 0.531250 0.250000
vt 0.468750 0.500000
vt 0.531250 0.500000
vt 0.468750 0.682686
vt 0.531250 0.682686
vt 0.875000 0.500000
vt 0.875000 0.750000
vt 0.779545 0.750000
vt 0.779545 0.676925
vt 0.720455 0.676925
vt 0.720455 0.750000
vt 0.375000 0.845455
vt 0.625000 0.845455
vt 0.625000 1.000000
vt 0.375000 1.000000
vt 0.375000 0.904545
vt 0.625000 0.904545
vt 0.125000 0.750000
vt 0.125000 0.500000
vt 0.279545 0.750000
vt 0.279545 0.676925
vt 0.220455 0.676925
vt 0.220455 0.750000
vn -1.0000 0.0000 0.0000
vn 1.0000 0.0000 0.0000
vn 0.0000 0.0000 1.0000
vn 0.0000 0.0000 -1.0000
vn 0.0000 -1.0000 -0.0000
vn 0.0000 1.0000 0.0000
usemtl Material
s off
f 8/1/1 7/2/1 5/3/1 6/4/1
f 2/5/2 1/6/2 3/7/2 4/8/2
f 6/4/3 5/3/3 1/6/3 2/5/3
f 10/9/2 9/10/2 11/11/2 12/12/2
f 12/12/4 11/11/4 13/13/4 14/14/4
f 14/14/1 13/13/1 15/15/1 16/16/1
f 3/7/5 1/6/5 5/17/5 7/18/5 10/19/5 12/20/5 14/21/5 16/22/5
f 15/23/4 4/8/4 3/7/4 16/24/4
f 7/25/4 8/26/4 9/27/4 10/28/4
f 8/29/6 6/30/6 2/5/6 4/8/6 15/31/6 13/32/6 11/33/6 9/34/6
